<?xml version="1.0" encoding="utf-8"?>
<!-- Generator: Adobe Illustrator 22.0.1, SVG Export Plug-In . SVG Version: 6.00 Build 0)  -->
<svg version="1.1" xmlns="http://www.w3.org/2000/svg" xmlns:xlink="http://www.w3.org/1999/xlink" x="0px" y="0px"
	 viewBox="0 0 23 38" style="enable-background:new 0 0 23 38;" xml:space="preserve">
<style type="text/css">
	.st0{fill:none;stroke:#000000;stroke-miterlimit:10;}
	.st1{display:none;}
	.st2{display:inline;fill:none;stroke:#000000;stroke-miterlimit:10;}
	.st3{ fill: #e40045;}
</style>
<g id="Layer_4">
	<path d="M5.4,29.4l-2.9,5.7c-0.1,0.2,0,0.3,0.2,0.3h15.8c0.2,0,0.3-0.2,0.2-0.3l-2.9-5.8c-0.2-0.3-0.5-0.5-0.9-0.5H6.3
		C5.9,28.9,5.5,29.1,5.4,29.4z"/>
	<path d="M8.3,9.8L3.7,2.9c-0.1-0.2,0-0.4,0.2-0.4h16.3c0.2,0,0.3,0.2,0.2,0.4l-4.6,6.9c-0.3,0.4-0.7,0.7-1.3,0.7h-5
		C9.1,10.5,8.6,10.2,8.3,9.8z"/>
</g>
<g id="Layer_5">
	<g>
		<path class="st0" d="M18.1,25.5c-1.1-1.9-2.1-3.8-3.2-5.7c-0.1-0.1-0.4-1.1,0.2-2.3c3.9-7,4.9-9.6,6.9-13c0.6-1,0.6-2.2,0-3
			c-0.7-0.9-1.8-1-2-1H3.4"/>
		<path class="st0" d="M4.9,12.5c1.1,1.9,2.1,3.8,3.2,5.7c0.1,0.1,0.4,1.1-0.2,2.3c-3.9,7-4.9,9.6-6.9,13c-0.6,1-0.6,2.2,0,3
			c0.7,0.9,1.8,1,2,1h16.6"/>
		<polygon class="st3" points="10.6,15.9 9.5,20.3 11.1,20.3 9.5,24.1 13.5,19 11.5,19 12.8,15.9 		"/>
	</g>
</g>
<g id="Layer_3" class="st1">
	<circle class="st2" cx="11.5" cy="18.5" r="25.5"/>
</g>
</svg>
